<svg xmlns="http://www.w3.org/2000/svg" width="38.516" height="31.512" viewBox="0 0 38.516 31.512">
  <path id="_005-cloudy" data-name="005-cloudy" d="M37.765,17.255a12.237,12.237,0,0,0-22.425-6.8,12.088,12.088,0,0,0-2.6-.2A12.626,12.626,0,0,0,1,22.981,13.545,13.545,0,0,0,14.531,36.512H30.762a8.764,8.764,0,0,0,8.754-8.754,10.434,10.434,0,0,0-2.377-6.653,12.134,12.134,0,0,0,.627-3.852ZM25.51,8.5a8.754,8.754,0,0,1,8.648,10.105,10.634,10.634,0,0,0-5.147-1.352h0a9.772,9.772,0,0,0-4.3.916,12.586,12.586,0,0,0-5.889-6.556A8.713,8.713,0,0,1,25.51,8.5Zm5.252,24.51H14.531A10.04,10.04,0,0,1,4.5,22.981a9.093,9.093,0,0,1,8.381-9.228,8.883,8.883,0,0,1,9.013,7.411,1.751,1.751,0,0,0,2.813,1.112,6.882,6.882,0,0,1,9.128.424,6.97,6.97,0,0,1,2.178,5.06,5.252,5.252,0,0,1-5.252,5.252Z" transform="translate(-1 -5)" fill="#464646"/>
</svg>
